<?xml version="1.0" standalone="no"?>
<svg viewBox="0 0 200 200" xmlns="http://www.w3.org/2000/svg">
  <path fill="#FF0066" d="M28.5,-50.3C34.7,-45.8,35.8,-33.6,38.1,-23.9C40.3,-14.2,43.7,-7.1,51.1,4.3C58.5,15.7,70,31.3,65.4,37C60.8,42.6,40.2,38.2,26.6,44C13,49.8,6.5,65.7,-4.8,74C-16.2,82.4,-32.3,83.2,-41.5,74.9C-50.6,66.5,-52.7,49.1,-54.4,35.1C-56,21.1,-57.2,10.5,-59.7,-1.5C-62.2,-13.5,-66.1,-26.9,-60.9,-34.7C-55.7,-42.6,-41.4,-44.8,-29.7,-46C-18.1,-47.3,-9,-47.6,1.1,-49.5C11.2,-51.3,22.4,-54.7,28.5,-50.3Z" transform="translate(100 100)" />
</svg>
